<svg xmlns="http://www.w3.org/2000/svg" width="40" height="28" fill="none" viewBox="0 0 40 28">
    <path fill="url(#rglogo-gradient)" fill-rule="evenodd" d="M20.435 19.842c0 4.414 4.388 8.005 9.782 8.005S40 24.255 40 19.841v-5.03c0-.788-.316-1.545-.877-2.103a3 3 0 0 0-2.113-.872h-6.793c-.518 0-1.016.205-1.383.57a1.943 1.943 0 0 0 0 2.754c.367.365.864.57 1.383.57h5.87v4.11c0 2.229-2.688 4.111-5.87 4.111-3.181 0-5.87-1.882-5.87-4.11V8.159c0-1.9 2.565-4.11 5.87-4.11 3.306 0 5.87 2.21 5.87 4.11v.865c0 .517.206 1.012.573 1.377a1.962 1.962 0 0 0 2.767 0c.367-.365.573-.86.573-1.377V8.16C40 3.82 35.52.154 30.217.154c-5.302 0-9.782 3.666-9.782 8.005v11.683Zm-2.898 7.765a1.963 1.963 0 0 0 2.657-.771 1.94 1.94 0 0 0-.065-1.982l-5.782-9.043a3.013 3.013 0 0 0-.335-.431c3.21-1.109 5.553-4.641 5.553-7.654 0-3.233-2.812-7.14-6.304-7.14H2.99a3 3 0 0 0-2.114.873A2.972 2.972 0 0 0 0 3.563v22.336c0 .517.206 1.012.573 1.377a1.961 1.961 0 0 0 2.767 0c.367-.365.573-.86.573-1.377V15.351c0 .79.316 1.546.877 2.104a3 3 0 0 0 2.113.872h4.415l5.51 8.618c.176.276.42.504.71.662ZM3.913 14.813V4.48h9.348c1.109 0 2.391 1.964 2.391 3.245 0 1.547-1.79 4.11-3.695 4.11H6.902a3 3 0 0 0-2.113.873 2.972 2.972 0 0 0-.877 2.104Z" clip-rule="evenodd"/>
    <path fill="#fff" fill-rule="evenodd" d="M30.217 1.669c-2.26 0-4.313.77-5.806 1.958-1.49 1.184-2.455 2.813-2.455 4.532v11.683c0 3.682 3.803 6.49 8.261 6.49 4.458 0 8.261-2.808 8.261-6.49v-5.029a1.456 1.456 0 0 0-.906-1.35 1.476 1.476 0 0 0-.562-.111h-6.793v.865h6.793a.6.6 0 0 1 .599.596v5.029c0 3.014-3.198 5.625-7.392 5.625-4.193 0-7.391-2.61-7.391-5.625V8.159c0-1.389.785-2.79 2.127-3.856 1.338-1.064 3.2-1.769 5.264-1.769 2.066 0 3.926.705 5.264 1.769C36.823 5.37 37.61 6.77 37.61 8.159v.866h.87v-.866c0-1.72-.966-3.348-2.455-4.532-1.494-1.188-3.546-1.958-5.807-1.958ZM2.99 2.102a1.475 1.475 0 0 0-1.357.902 1.455 1.455 0 0 0-.112.56V25.9h.87V3.563a.594.594 0 0 1 .37-.55.602.602 0 0 1 .229-.046h10.27c1.013 0 1.987.644 2.73 1.614.74.968 1.184 2.176 1.184 3.146 0 1.169-.597 2.587-1.58 3.72-.98 1.13-2.284 1.905-3.638 1.905H6.903a1.476 1.476 0 0 0-1.038.428 1.461 1.461 0 0 0-.43 1.033v.539c0 .387.154.759.43 1.033.275.274.649.428 1.038.428h4.92a.6.6 0 0 1 .506.276l5.782 9.043.734-.465-5.782-9.042a1.465 1.465 0 0 0-1.24-.677h-4.92a.6.6 0 0 1-.599-.596v-.539a.593.593 0 0 1 .37-.55.6.6 0 0 1 .23-.046h5.052c1.69 0 3.213-.956 4.297-2.205 1.082-1.248 1.79-2.859 1.79-4.285 0-1.195-.529-2.583-1.361-3.67-.83-1.085-2.03-1.955-3.421-1.955H2.99Z" clip-rule="evenodd"/>
    <defs>
        <linearGradient id="rglogo-gradient" x1="40" x2="0" y1="14.001" y2="14.001" gradientUnits="userSpaceOnUse">
            <stop stop-color="#8C18F1"/>
            <stop offset="1" stop-color="#E5194D"/>
        </linearGradient>
    </defs>
</svg>